<?xml version="1.0" encoding="utf-8"?>
<!-- Generator: Adobe Illustrator 27.5.0, SVG Export Plug-In . SVG Version: 6.00 Build 0)  -->
<svg version="1.1" id="Capa_1" xmlns="http://www.w3.org/2000/svg" xmlns:xlink="http://www.w3.org/1999/xlink" x="0px" y="0px"
	 viewBox="0 0 343.9 226.8" style="enable-background:new 0 0 343.9 226.8;" xml:space="preserve">
<style type="text/css">
	.st0{fill:#C19255;}
	.st1{fill:#971646;}
	.st2{opacity:0.428;fill:#B5173A;enable-background:new    ;}
	.st3{fill:#1D1D1B;}
</style>
<g>
	<path class="st0" d="M177.4,114.4H135V87.9c0-8.8,7.2-16,16-16h10.3c8.9,0,16.1,7.2,16.1,16.1L177.4,114.4L177.4,114.4z"/>
	<path class="st1" d="M233.8,3.5h-81.5H143h-22.1h-5.1h-7.4C98.7,3.5,91,11.3,91,20.9v62.7c0,4.8,3.9,8.7,8.7,8.7s8.7-3.9,8.7-8.7
		V31c0-5.6,4.5-10.2,10.2-10.2h33.9l0,0h71.4c5.6,0,10.2,4.5,10.2,10.2v57.3c0,5.6-4.5,10.2-10.2,10.2h-11.4V64.4
		c0-5-4.1-9.1-9.1-9.1h-24.3c-5,0-9,4-9,9v34.2h-3.5h-47.9h-4.8c-6.1-0.3-12.2,0.9-16.2,5.6c-3.5,4.2-4.3,6.4-5.6,11.7
		c-0.6,2.8-0.9,4.7-0.9,7.7c-0.1,4.5,0.8,6.8,1.5,9.7c-1.1-4.6-0.2-8.4,2.6-12.1c3.4-4.2,8-5.7,13.4-5.3l0,0h125.4
		c9.7,0,17.4-7.8,17.4-17.4V20.9C251.2,11.3,243.4,3.5,233.8,3.5z"/>
	<path id="rect53650" class="st0" d="M105.7,20.8c-8.2,0-14.8,6.6-14.8,14.8v47.9c0,4.8,3.9,8.7,8.7,8.7s8.7-3.9,8.7-8.7V31
		c0-5.6,4.5-10.2,10.2-10.2H105.7z"/>
	<path id="rect47189" class="st2" d="M231.1,98.5c11.1,0,20.1-9,20.1-20.1V40.9c0-11.1-9-20.1-20.1-20.1h-7.4
		c5.6,0,10.2,4.5,10.2,10.2v57.3c0,5.6-4.5,10.2-10.2,10.2H231.1z"/>
	<circle class="st0" cx="156.1" cy="57.1" r="12.5"/>
	<circle class="st1" cx="191" cy="39.1" r="12.5"/>
</g>
<g>
	<path class="st3" d="M8.3,207.3c-0.9-0.5-1.9-0.7-3.1-0.7H0.5v11h4.7c1.2,0,2.2-0.2,3.1-0.7s1.6-1.1,2.1-1.9
		c0.5-0.8,0.7-1.8,0.7-2.9c0-1.1-0.2-2.1-0.7-2.9C9.9,208.5,9.2,207.8,8.3,207.3z M9,214.3c-0.4,0.6-0.9,1.1-1.6,1.5
		c-0.7,0.3-1.5,0.5-2.4,0.5H2V208h3c0.9,0,1.7,0.2,2.4,0.5s1.2,0.8,1.6,1.5c0.4,0.6,0.6,1.3,0.6,2.2C9.6,213,9.4,213.7,9,214.3z"/>
	<polygon class="st3" points="15.2,212.8 20.7,212.8 20.7,211.4 15.2,211.4 15.2,208 21.4,208 21.4,206.6 13.6,206.6 13.6,217.7 
		21.6,217.7 21.6,216.3 15.2,216.3 	"/>
	<path class="st3" d="M31.7,206.6l-5,11h1.6l1.2-2.8h5.9l1.2,2.8h1.7l-5-11H31.7z M30.1,213.7l2.4-5.4l2.4,5.4H30.1z"/>
	<polygon class="st3" points="37.8,208 41.6,208 41.6,217.7 43.2,217.7 43.2,208 46.9,208 46.9,206.6 37.8,206.6 	"/>
	<polygon class="st3" points="50.2,212.8 55.8,212.8 55.8,211.4 50.2,211.4 50.2,208 56.5,208 56.5,206.6 48.7,206.6 48.7,217.7 
		56.7,217.7 56.7,216.3 50.2,216.3 	"/>
	<polygon class="st3" points="67.2,214.9 60.5,206.6 59.2,206.6 59.2,217.7 60.8,217.7 60.8,209.5 67.4,217.7 68.7,217.7 
		68.7,206.6 67.2,206.6 	"/>
	<path class="st3" d="M74,209.1c0.4-0.4,0.8-0.7,1.4-0.9c0.5-0.2,1.1-0.3,1.7-0.3s1.2,0.1,1.7,0.3s1,0.5,1.4,1l1-1
		c-0.5-0.6-1.1-1-1.8-1.3s-1.5-0.4-2.4-0.4c-0.8,0-1.6,0.1-2.3,0.4c-0.7,0.3-1.3,0.7-1.9,1.2c-0.5,0.5-0.9,1.1-1.2,1.8
		s-0.4,1.4-0.4,2.3c0,0.8,0.1,1.6,0.4,2.3s0.7,1.3,1.2,1.8s1.1,0.9,1.8,1.2s1.5,0.4,2.3,0.4c0.9,0,1.7-0.1,2.4-0.4
		c0.7-0.3,1.3-0.7,1.8-1.3l-1-1c-0.4,0.5-0.9,0.8-1.4,1s-1.1,0.3-1.7,0.3s-1.2-0.1-1.7-0.3s-1-0.5-1.4-0.9s-0.7-0.8-0.9-1.3
		s-0.3-1.1-0.3-1.7c0-0.6,0.1-1.2,0.3-1.7C73.3,210,73.6,209.5,74,209.1z"/>
	<rect x="83.3" y="206.6" class="st3" width="1.6" height="11"/>
	<polygon class="st3" points="96.1,203.7 94.1,203.7 92,205.7 93.4,205.7 	"/>
	<path class="st3" d="M97.4,208.1c-0.5-0.5-1.2-0.9-1.9-1.2s-1.5-0.4-2.3-0.4c-0.9,0-1.6,0.1-2.4,0.4c-0.7,0.3-1.3,0.7-1.9,1.2
		c-0.5,0.5-0.9,1.1-1.2,1.8s-0.4,1.4-0.4,2.2s0.1,1.6,0.4,2.2c0.3,0.7,0.7,1.3,1.2,1.8s1.1,0.9,1.9,1.2c0.7,0.3,1.5,0.4,2.3,0.4
		s1.6-0.1,2.3-0.4c0.7-0.3,1.3-0.7,1.9-1.2c0.5-0.5,0.9-1.1,1.2-1.8s0.4-1.4,0.4-2.3c0-0.8-0.1-1.6-0.4-2.3
		C98.3,209.2,97.9,208.6,97.4,208.1z M97.1,213.9c-0.2,0.5-0.5,1-0.9,1.3c-0.4,0.4-0.8,0.7-1.4,0.9c-0.5,0.2-1.1,0.3-1.7,0.3
		s-1.2-0.1-1.7-0.3s-1-0.5-1.4-0.9s-0.7-0.8-0.9-1.3s-0.3-1.1-0.3-1.7c0-0.6,0.1-1.2,0.3-1.7s0.5-1,0.9-1.3c0.4-0.4,0.8-0.7,1.4-0.9
		c0.5-0.2,1.1-0.3,1.7-0.3s1.2,0.1,1.7,0.3s1,0.5,1.4,0.9s0.7,0.8,0.9,1.3s0.3,1.1,0.3,1.7C97.5,212.8,97.3,213.3,97.1,213.9z"/>
	<polygon class="st3" points="109.4,214.9 102.7,206.6 101.4,206.6 101.4,217.7 103,217.7 103,209.5 109.6,217.7 110.9,217.7 
		110.9,206.6 109.4,206.6 	"/>
	<path class="st3" d="M121.8,206.6l-5,11h1.6l1.2-2.8h5.9l1.2,2.8h1.7l-5-11H121.8z M120.2,213.7l2.4-5.4l2.4,5.4H120.2z"/>
	<polygon class="st3" points="131.6,206.6 130,206.6 130,217.7 137.6,217.7 137.6,216.3 131.6,216.3 	"/>
	<path class="st3" d="M150.4,207.1c-0.7-0.3-1.5-0.5-2.5-0.5h-4.3v11h1.6v-3.3h2.7c1,0,1.8-0.2,2.5-0.5s1.2-0.8,1.6-1.3
		c0.4-0.6,0.6-1.3,0.6-2.1s-0.2-1.5-0.6-2.1C151.7,207.9,151.1,207.4,150.4,207.1z M150.2,212.3c-0.5,0.4-1.3,0.6-2.3,0.6h-2.7v-5
		h2.7c1,0,1.8,0.2,2.3,0.6c0.5,0.4,0.8,1,0.8,1.8S150.7,211.9,150.2,212.3z"/>
	<path class="st3" d="M162.6,212.9c0,1.2-0.3,2.1-0.8,2.7c-0.5,0.6-1.3,0.9-2.3,0.9s-1.8-0.3-2.3-0.9c-0.5-0.6-0.8-1.5-0.8-2.7v-6.2
		h-1.6v6.3c0,1.6,0.4,2.8,1.2,3.6s2,1.2,3.4,1.2c1.5,0,2.6-0.4,3.4-1.2s1.2-2,1.2-3.6v-6.3h-1.5L162.6,212.9L162.6,212.9z"/>
	<polygon class="st3" points="169,212.8 174.5,212.8 174.5,211.4 169,211.4 169,208 175.2,208 175.2,206.6 167.4,206.6 167.4,217.7 
		175.4,217.7 175.4,216.3 169,216.3 	"/>
	<path class="st3" d="M185.9,212.2c-0.2-0.1-0.3-0.1-0.5-0.2l0,0c0.5-0.2,0.8-0.5,1.1-0.9s0.4-0.9,0.4-1.5c0-0.9-0.3-1.6-1-2.1
		s-1.7-0.8-2.9-0.8h-5v11h5.3c1.4,0,2.5-0.3,3.2-0.8s1.1-1.3,1.1-2.2c0-0.6-0.1-1.2-0.4-1.6C186.8,212.7,186.4,212.4,185.9,212.2z
		 M182.8,207.9c0.8,0,1.4,0.1,1.9,0.4c0.4,0.3,0.7,0.7,0.7,1.3s-0.2,1-0.7,1.3c-0.4,0.3-1.1,0.4-1.9,0.4h-3.2v-3.5h3.2V207.9z
		 M185.2,216c-0.5,0.3-1.1,0.4-2,0.4h-3.6v-3.7h3.6c0.9,0,1.5,0.1,2,0.4c0.5,0.3,0.7,0.8,0.7,1.4C185.9,215.2,185.7,215.7,185.2,216
		z"/>
	<polygon class="st3" points="191.5,206.6 189.9,206.6 189.9,217.7 197.5,217.7 197.5,216.3 191.5,216.3 	"/>
	<path class="st3" d="M208.3,208.1c-0.5-0.5-1.2-0.9-1.9-1.2s-1.5-0.4-2.3-0.4c-0.9,0-1.6,0.1-2.4,0.4c-0.7,0.3-1.3,0.7-1.9,1.2
		c-0.5,0.5-0.9,1.1-1.2,1.8s-0.4,1.4-0.4,2.2s0.1,1.6,0.4,2.2c0.3,0.7,0.7,1.3,1.2,1.8s1.1,0.9,1.9,1.2c0.7,0.3,1.5,0.4,2.3,0.4
		s1.6-0.1,2.3-0.4c0.7-0.3,1.3-0.7,1.9-1.2c0.5-0.5,0.9-1.1,1.2-1.8s0.4-1.4,0.4-2.3c0-0.8-0.1-1.6-0.4-2.3
		C209.2,209.2,208.8,208.6,208.3,208.1z M208,213.9c-0.2,0.5-0.5,1-0.9,1.3c-0.4,0.4-0.8,0.7-1.4,0.9c-0.5,0.2-1.1,0.3-1.7,0.3
		s-1.2-0.1-1.7-0.3s-1-0.5-1.4-0.9s-0.7-0.8-0.9-1.3s-0.3-1.1-0.3-1.7c0-0.6,0.1-1.2,0.3-1.7s0.5-1,0.9-1.3c0.4-0.4,0.8-0.7,1.4-0.9
		c0.5-0.2,1.1-0.3,1.7-0.3s1.2,0.1,1.7,0.3s1,0.5,1.4,0.9s0.7,0.8,0.9,1.3s0.3,1.1,0.3,1.7C208.4,212.8,208.2,213.3,208,213.9z"/>
	<polygon class="st3" points="218.2,212.8 223.7,212.8 223.7,211.4 218.2,211.4 218.2,208 224.4,208 224.4,206.6 216.6,206.6 
		216.6,217.7 224.6,217.7 224.6,216.3 218.2,216.3 	"/>
	<polygon class="st3" points="235.1,214.9 228.5,206.6 227.2,206.6 227.2,217.7 228.7,217.7 228.7,209.5 235.4,217.7 236.7,217.7 
		236.7,206.6 235.1,206.6 	"/>
	<polygon class="st3" points="242.6,208 246.4,208 246.4,217.7 248,217.7 248,208 251.8,208 251.8,206.6 242.6,206.6 	"/>
	<polygon class="st3" points="255.1,212.8 260.6,212.8 260.6,211.4 255.1,211.4 255.1,208 261.3,208 261.3,206.6 253.5,206.6 
		253.5,217.7 261.5,217.7 261.5,216.3 255.1,216.3 	"/>
	<path class="st3" d="M270.8,213.9c0.7-0.3,1.2-0.7,1.6-1.3s0.6-1.3,0.6-2.1c0-1.2-0.4-2.2-1.2-2.8c-0.8-0.7-1.9-1-3.4-1H264v11h1.6
		v-3.4h2.7c0.2,0,0.5,0,0.7,0l2.4,3.4h1.7l-2.6-3.7C270.6,214,270.7,213.9,270.8,213.9z M268.3,213h-2.7v-5h2.7c1,0,1.8,0.2,2.3,0.6
		s0.8,1,0.8,1.8s-0.3,1.4-0.8,1.8C270.1,212.8,269.3,213,268.3,213z"/>
	<path class="st3" d="M282.3,213.9c0.7-0.3,1.2-0.7,1.6-1.3s0.6-1.3,0.6-2.1c0-1.2-0.4-2.2-1.2-2.8c-0.8-0.7-1.9-1-3.4-1h-4.3v11
		h1.6v-3.4h2.7c0.2,0,0.5,0,0.7,0l2.4,3.4h1.7l-2.6-3.7C282.1,214,282.2,213.9,282.3,213.9z M279.8,213h-2.7v-5h2.7
		c1,0,1.8,0.2,2.3,0.6c0.5,0.4,0.8,1,0.8,1.8s-0.3,1.4-0.8,1.8C281.6,212.8,280.8,213,279.8,213z"/>
	<rect x="287" y="206.6" class="st3" width="1.6" height="11"/>
	<polygon class="st3" points="290.3,208 294.1,208 294.1,217.7 295.6,217.7 295.6,208 299.4,208 299.4,206.6 290.3,206.6 	"/>
	<path class="st3" d="M310.2,208.1c-0.5-0.5-1.2-0.9-1.9-1.2c-0.7-0.3-1.5-0.4-2.3-0.4c-0.9,0-1.6,0.1-2.4,0.4
		c-0.7,0.3-1.3,0.7-1.9,1.2c-0.5,0.5-0.9,1.1-1.2,1.8c-0.3,0.7-0.4,1.4-0.4,2.2s0.1,1.6,0.4,2.2c0.3,0.7,0.7,1.3,1.2,1.8
		s1.1,0.9,1.9,1.2c0.7,0.3,1.5,0.4,2.3,0.4s1.6-0.1,2.3-0.4c0.7-0.3,1.3-0.7,1.9-1.2c0.5-0.5,0.9-1.1,1.2-1.8
		c0.3-0.7,0.4-1.4,0.4-2.3c0-0.8-0.1-1.6-0.4-2.3C311.1,209.2,310.7,208.6,310.2,208.1z M309.9,213.9c-0.2,0.5-0.5,1-0.9,1.3
		c-0.4,0.4-0.8,0.7-1.4,0.9c-0.5,0.2-1.1,0.3-1.7,0.3s-1.2-0.1-1.7-0.3s-1-0.5-1.4-0.9s-0.7-0.8-0.9-1.3c-0.2-0.5-0.3-1.1-0.3-1.7
		c0-0.6,0.1-1.2,0.3-1.7c0.2-0.5,0.5-1,0.9-1.3c0.4-0.4,0.8-0.7,1.4-0.9c0.5-0.2,1.1-0.3,1.7-0.3s1.2,0.1,1.7,0.3s1,0.5,1.4,0.9
		s0.7,0.8,0.9,1.3c0.2,0.5,0.3,1.1,0.3,1.7C310.2,212.8,310.1,213.3,309.9,213.9z"/>
	<path class="st3" d="M321,213.9c0.7-0.3,1.2-0.7,1.6-1.3s0.6-1.3,0.6-2.1c0-1.2-0.4-2.2-1.2-2.8c-0.8-0.7-1.9-1-3.4-1h-4.3v11h1.6
		v-3.4h2.7c0.2,0,0.5,0,0.7,0l2.4,3.4h1.7l-2.6-3.7C320.8,214,320.9,213.9,321,213.9z M318.5,213h-2.7v-5h2.7c1,0,1.8,0.2,2.3,0.6
		c0.5,0.4,0.8,1,0.8,1.8s-0.3,1.4-0.8,1.8C320.3,212.8,319.5,213,318.5,213z"/>
	<rect x="325.7" y="206.6" class="st3" width="1.6" height="11"/>
	<path class="st3" d="M341,209.9c-0.3-0.7-0.7-1.3-1.2-1.8s-1.2-0.9-1.9-1.2c-0.7-0.3-1.5-0.4-2.3-0.4c-0.9,0-1.6,0.1-2.4,0.4
		c-0.7,0.3-1.3,0.7-1.9,1.2c-0.5,0.5-0.9,1.1-1.2,1.8c-0.3,0.7-0.4,1.4-0.4,2.2s0.1,1.6,0.4,2.2c0.3,0.7,0.7,1.3,1.2,1.8
		s1.1,0.9,1.9,1.2c0.7,0.3,1.5,0.4,2.3,0.4s1.6-0.1,2.3-0.4c0.7-0.3,1.3-0.7,1.9-1.2c0.5-0.5,0.9-1.1,1.2-1.8
		c0.3-0.7,0.4-1.4,0.4-2.3C341.4,211.4,341.3,210.6,341,209.9z M339.5,213.9c-0.2,0.5-0.5,1-0.9,1.3c-0.4,0.4-0.8,0.7-1.4,0.9
		c-0.5,0.2-1.1,0.3-1.7,0.3s-1.2-0.1-1.7-0.3s-1-0.5-1.4-0.9s-0.7-0.8-0.9-1.3c-0.2-0.5-0.3-1.1-0.3-1.7c0-0.6,0.1-1.2,0.3-1.7
		c0.2-0.5,0.5-1,0.9-1.3c0.4-0.4,0.8-0.7,1.4-0.9c0.5-0.2,1.1-0.3,1.7-0.3s1.2,0.1,1.7,0.3s1,0.5,1.4,0.9s0.7,0.8,0.9,1.3
		c0.2,0.5,0.3,1.1,0.3,1.7C339.9,212.8,339.8,213.3,339.5,213.9z"/>
</g>
<g>
	<path class="st1" d="M4.1,155.4h14.3v19.3c0,4.5-1.9,6.7-5.7,6.7c-1.4,0-2.8-0.4-4-1.1c-1.2-0.8-2.4-1.9-3.5-3.3L0,183.3
		c1.5,1.9,3.4,3.4,5.7,4.4s4.8,1.5,7.6,1.5c4.8,0,8.4-1.2,10.9-3.7s3.7-6.2,3.7-11.3v-26.3H4.3v7.5L4.1,155.4L4.1,155.4z"/>
	<path class="st1" d="M72.5,153.2c-2-1.9-4.3-3.4-7-4.4s-5.6-1.6-8.8-1.6s-6.1,0.5-8.8,1.6c-2.7,1-5.1,2.5-7.1,4.4s-3.6,4.1-4.7,6.7
		c-1.1,2.6-1.7,5.3-1.7,8.4c0,3,0.6,5.8,1.7,8.4c1.1,2.6,2.6,4.8,4.6,6.7s4.3,3.4,7.1,4.4c2.7,1,5.7,1.6,8.9,1.6s6.1-0.5,8.8-1.6
		c2.7-1,5-2.5,7-4.4s3.5-4.1,4.7-6.7c1.1-2.6,1.7-5.4,1.7-8.4c0-3.1-0.6-5.8-1.7-8.4C76,157.3,74.5,155,72.5,153.2z M68.4,173.5
		c-0.6,1.6-1.5,3-2.7,4.1c-1.2,1.2-2.5,2-4,2.7c-1.5,0.6-3.2,0.9-5,0.9s-3.5-0.3-5-0.9c-1.5-0.6-2.9-1.5-4-2.7s-2-2.5-2.7-4.1
		c-0.6-1.6-1-3.4-1-5.2c0-1.9,0.3-3.7,1-5.3c0.6-1.6,1.5-3,2.7-4.1c1.2-1.2,2.5-2,4-2.7c1.5-0.6,3.2-0.9,5-0.9s3.5,0.3,5,0.9
		c1.5,0.6,2.9,1.5,4,2.7s2,2.5,2.7,4.1c0.6,1.6,1,3.3,1,5.3C69.3,170.1,69,171.9,68.4,173.5z"/>
	<path class="st1" d="M112.9,175.4c2.6-1.2,4.7-2.8,6.1-5s2.1-4.8,2.1-7.8c0-4.6-1.6-8.2-4.7-10.8s-7.5-3.9-13.2-3.9H85.9v40.6h9.4
		v-11.3h8.2c0.1,0,0.3,0,0.4,0l7.8,11.3h10.1L112.9,175.4C112.8,175.4,112.9,175.4,112.9,175.4z M109.5,157.4c1.4,1.2,2.1,3,2.1,5.2
		s-0.7,3.9-2.1,5.2s-3.6,1.9-6.5,1.9h-7.7v-14.2h7.7C105.9,155.5,108,156.1,109.5,157.4z"/>
	<polygon class="st1" points="156.5,172.5 136.3,147.9 128.5,147.9 128.5,188.5 137.8,188.5 137.8,163.8 158.1,188.5 165.8,188.5 
		165.8,147.9 156.5,147.9 	"/>
	<path class="st1" d="M188.2,147.9l-18.1,40.6h9.6l3.6-8.7h18.8l3.6,8.7h9.9l-18.2-40.6H188.2z M186.3,172.6l6.5-15.5l6.4,15.5
		H186.3z"/>
	<path class="st1" d="M249.9,150.4c-3.4-1.7-7.3-2.5-11.7-2.5h-18.4v40.6h18.4c4.4,0,8.3-0.8,11.7-2.5s6-4,7.9-7.1
		c1.9-3,2.8-6.6,2.8-10.7c0-4.1-0.9-7.7-2.8-10.7C255.9,154.4,253.3,152.1,249.9,150.4z M249.5,174.8c-1.1,1.9-2.6,3.4-4.6,4.4
		s-4.3,1.5-7,1.5h-8.6v-25.2h8.6c2.7,0,5.1,0.5,7,1.5c2,1,3.5,2.5,4.6,4.3c1.1,1.9,1.7,4.1,1.7,6.7
		C251.2,170.7,250.6,172.9,249.5,174.8z"/>
	<path class="st1" d="M279.9,147.9l-18.1,40.6h9.6l3.6-8.7h18.8l3.6,8.7h9.9l-18.2-40.6H279.9z M278,172.6l6.5-15.5l6.4,15.5H278z"
		/>
	<path class="st1" d="M340.9,171.3c-0.9-1.4-2-2.5-3.4-3.4c-1.4-0.8-2.9-1.5-4.6-2s-3.4-0.9-5-1.3c-1.7-0.4-3.2-0.8-4.6-1.2
		s-2.5-0.9-3.4-1.5s-1.3-1.5-1.3-2.5c0-0.9,0.3-1.7,0.8-2.3c0.5-0.7,1.3-1.2,2.5-1.7c1.2-0.4,2.6-0.6,4.5-0.6c1.8,0,3.7,0.3,5.6,0.8
		s3.8,1.3,5.7,2.4l2.9-7.1c-1.9-1.2-4.1-2.1-6.6-2.7c-2.5-0.6-5-0.9-7.5-0.9c-3.8,0-7,0.6-9.5,1.7c-2.5,1.1-4.4,2.7-5.7,4.6
		c-1.3,1.9-1.9,4-1.9,6.4c0,2.2,0.4,3.9,1.3,5.3c0.9,1.4,2,2.5,3.4,3.4s2.9,1.5,4.6,2.1c1.7,0.5,3.4,1,5,1.4
		c1.7,0.4,3.2,0.8,4.6,1.2s2.5,0.9,3.4,1.6c0.8,0.6,1.3,1.5,1.3,2.6c0,0.9-0.3,1.6-0.8,2.3s-1.4,1.2-2.5,1.5
		c-1.1,0.4-2.6,0.6-4.5,0.6c-2.4,0-4.8-0.4-7.2-1.2c-2.4-0.8-4.4-1.8-6.2-3l-3.2,7.1c1.8,1.4,4.2,2.5,7.2,3.4s6.1,1.3,9.3,1.3
		c3.9,0,7.1-0.6,9.6-1.7c2.5-1.2,4.4-2.7,5.7-4.6c1.3-1.9,1.9-4,1.9-6.3C342.2,174.5,341.7,172.7,340.9,171.3z"/>
</g>
</svg>
