<?xml version="1.0" encoding="utf-8"?>
<!-- Generator: Adobe Illustrator 27.0.0, SVG Export Plug-In . SVG Version: 6.00 Build 0)  -->
<svg version="1.1" id="Capa_1" xmlns="http://www.w3.org/2000/svg" xmlns:xlink="http://www.w3.org/1999/xlink" x="0px" y="0px"
	 viewBox="0 0 360 230.3" style="enable-background:new 0 0 360 230.3;" xml:space="preserve">
<style type="text/css">
	.st0{fill:#FFFFFF;}
	.st1{opacity:0.428;fill:#FFFFFF;enable-background:new    ;}
</style>
<g>
	<path class="st0" d="M189.4,117.9H147V91.4c0-8.8,7.2-16,16-16h10.3c8.9,0,16.1,7.2,16.1,16.1V117.9z"/>
	<path class="st0" d="M245.8,7h-81.5H155h-22.1h-5.1h-7.4c-9.7,0-17.4,7.8-17.4,17.4v62.7c0,4.8,3.9,8.7,8.7,8.7s8.7-3.9,8.7-8.7
		V34.5c0-5.6,4.5-10.2,10.2-10.2h33.9l0,0h71.4c5.6,0,10.2,4.5,10.2,10.2v57.3c0,5.6-4.5,10.2-10.2,10.2h-11.4V67.9
		c0-5-4.1-9.1-9.1-9.1h-24.3c-5,0-9,4-9,9V102h-3.5h-47.9h-4.8c-6.1-0.3-12.2,0.9-16.2,5.6c-3.5,4.2-4.3,6.4-5.6,11.7
		c-0.6,2.8-0.9,4.7-0.9,7.7c-0.1,4.5,0.8,6.8,1.5,9.7c-1.1-4.6-0.2-8.4,2.6-12.1c3.4-4.2,8-5.7,13.4-5.3l0,0h125.4
		c9.7,0,17.4-7.8,17.4-17.4V24.4C263.2,14.8,255.4,7,245.8,7z"/>
	<path id="rect53650" class="st0" d="M117.7,24.3c-8.2,0-14.8,6.6-14.8,14.8V87c0,4.8,3.9,8.7,8.7,8.7s8.7-3.9,8.7-8.7V34.5
		c0-5.6,4.5-10.2,10.2-10.2H117.7z"/>
	<path id="rect47189" class="st1" d="M243.1,102c11.1,0,20.1-9,20.1-20.1V44.4c0-11.1-9-20.1-20.1-20.1h-7.4
		c5.6,0,10.2,4.5,10.2,10.2v57.3c0,5.6-4.5,10.2-10.2,10.2H243.1z"/>
	<circle class="st0" cx="168.1" cy="60.6" r="12.5"/>
	<circle class="st0" cx="203" cy="42.6" r="12.5"/>
</g>
<g>
	<path class="st0" d="M20.3,210.8c-0.9-0.5-1.9-0.7-3.1-0.7h-4.7v11h4.7c1.2,0,2.2-0.2,3.1-0.7c0.9-0.5,1.6-1.1,2.1-1.9
		c0.5-0.8,0.7-1.8,0.7-2.9c0-1.1-0.2-2.1-0.7-2.9C21.9,212,21.2,211.3,20.3,210.8z M21,217.8c-0.4,0.6-0.9,1.1-1.6,1.5
		c-0.7,0.3-1.5,0.5-2.4,0.5h-3v-8.3h3c0.9,0,1.7,0.2,2.4,0.5s1.2,0.8,1.6,1.5c0.4,0.6,0.6,1.3,0.6,2.2
		C21.6,216.5,21.4,217.2,21,217.8z"/>
	<polygon class="st0" points="27.2,216.3 32.7,216.3 32.7,214.9 27.2,214.9 27.2,211.5 33.4,211.5 33.4,210.1 25.6,210.1 
		25.6,221.2 33.6,221.2 33.6,219.8 27.2,219.8 	"/>
	<path class="st0" d="M43.7,210.1l-5,11h1.6l1.2-2.8h5.9l1.2,2.8h1.7l-5-11H43.7z M42.1,217.2l2.4-5.4l2.4,5.4H42.1z"/>
	<polygon class="st0" points="49.8,211.5 53.6,211.5 53.6,221.2 55.2,221.2 55.2,211.5 58.9,211.5 58.9,210.1 49.8,210.1 	"/>
	<polygon class="st0" points="62.2,216.3 67.8,216.3 67.8,214.9 62.2,214.9 62.2,211.5 68.5,211.5 68.5,210.1 60.7,210.1 
		60.7,221.2 68.7,221.2 68.7,219.8 62.2,219.8 	"/>
	<polygon class="st0" points="79.2,218.4 72.5,210.1 71.2,210.1 71.2,221.2 72.8,221.2 72.8,213 79.4,221.2 80.7,221.2 80.7,210.1 
		79.2,210.1 	"/>
	<path class="st0" d="M86,212.6c0.4-0.4,0.8-0.7,1.4-0.9c0.5-0.2,1.1-0.3,1.7-0.3c0.6,0,1.2,0.1,1.7,0.3s1,0.5,1.4,1l1-1
		c-0.5-0.6-1.1-1-1.8-1.3S89.9,210,89,210c-0.8,0-1.6,0.1-2.3,0.4c-0.7,0.3-1.3,0.7-1.9,1.2c-0.5,0.5-0.9,1.1-1.2,1.8
		s-0.4,1.4-0.4,2.3c0,0.8,0.1,1.6,0.4,2.3c0.3,0.7,0.7,1.3,1.2,1.8s1.1,0.9,1.8,1.2s1.5,0.4,2.3,0.4c0.9,0,1.7-0.1,2.4-0.4
		c0.7-0.3,1.3-0.7,1.8-1.3l-1-1c-0.4,0.5-0.9,0.8-1.4,1S89.6,220,89,220c-0.6,0-1.2-0.1-1.7-0.3s-1-0.5-1.4-0.9s-0.7-0.8-0.9-1.3
		s-0.3-1.1-0.3-1.7c0-0.6,0.1-1.2,0.3-1.7C85.3,213.5,85.6,213,86,212.6z"/>
	<rect x="95.3" y="210.1" class="st0" width="1.6" height="11"/>
	<polygon class="st0" points="108.1,207.2 106.1,207.2 104,209.2 105.4,209.2 	"/>
	<path class="st0" d="M109.4,211.6c-0.5-0.5-1.2-0.9-1.9-1.2s-1.5-0.4-2.3-0.4c-0.9,0-1.6,0.1-2.4,0.4c-0.7,0.3-1.3,0.7-1.9,1.2
		c-0.5,0.5-0.9,1.1-1.2,1.8s-0.4,1.4-0.4,2.2s0.1,1.6,0.4,2.2c0.3,0.7,0.7,1.3,1.2,1.8s1.1,0.9,1.9,1.2c0.7,0.3,1.5,0.4,2.3,0.4
		s1.6-0.1,2.3-0.4c0.7-0.3,1.3-0.7,1.9-1.2c0.5-0.5,0.9-1.1,1.2-1.8s0.4-1.4,0.4-2.3c0-0.8-0.1-1.6-0.4-2.3
		C110.3,212.7,109.9,212.1,109.4,211.6z M109.1,217.4c-0.2,0.5-0.5,1-0.9,1.3c-0.4,0.4-0.8,0.7-1.4,0.9c-0.5,0.2-1.1,0.3-1.7,0.3
		c-0.6,0-1.2-0.1-1.7-0.3s-1-0.5-1.4-0.9s-0.7-0.8-0.9-1.3s-0.3-1.1-0.3-1.7c0-0.6,0.1-1.2,0.3-1.7s0.5-1,0.9-1.3
		c0.4-0.4,0.8-0.7,1.4-0.9c0.5-0.2,1.1-0.3,1.7-0.3c0.6,0,1.2,0.1,1.7,0.3s1,0.5,1.4,0.9s0.7,0.8,0.9,1.3s0.3,1.1,0.3,1.7
		C109.5,216.3,109.3,216.8,109.1,217.4z"/>
	<polygon class="st0" points="121.4,218.4 114.7,210.1 113.4,210.1 113.4,221.2 115,221.2 115,213 121.6,221.2 122.9,221.2 
		122.9,210.1 121.4,210.1 	"/>
	<path class="st0" d="M133.8,210.1l-5,11h1.6l1.2-2.8h5.9l1.2,2.8h1.7l-5-11H133.8z M132.2,217.2l2.4-5.4l2.4,5.4H132.2z"/>
	<polygon class="st0" points="143.6,210.1 142,210.1 142,221.2 149.6,221.2 149.6,219.8 143.6,219.8 	"/>
	<path class="st0" d="M162.4,210.6c-0.7-0.3-1.5-0.5-2.5-0.5h-4.3v11h1.6v-3.3h2.7c1,0,1.8-0.2,2.5-0.5s1.2-0.8,1.6-1.3
		c0.4-0.6,0.6-1.3,0.6-2.1s-0.2-1.5-0.6-2.1C163.7,211.4,163.1,210.9,162.4,210.6z M162.2,215.8c-0.5,0.4-1.3,0.6-2.3,0.6h-2.7v-5
		h2.7c1,0,1.8,0.2,2.3,0.6c0.5,0.4,0.8,1,0.8,1.8S162.7,215.4,162.2,215.8z"/>
	<path class="st0" d="M174.6,216.4c0,1.2-0.3,2.1-0.8,2.7c-0.5,0.6-1.3,0.9-2.3,0.9s-1.8-0.3-2.3-0.9c-0.5-0.6-0.8-1.5-0.8-2.7v-6.2
		h-1.6v6.3c0,1.6,0.4,2.8,1.2,3.6c0.8,0.8,2,1.2,3.4,1.2c1.5,0,2.6-0.4,3.4-1.2s1.2-2,1.2-3.6v-6.3h-1.5L174.6,216.4L174.6,216.4z"
		/>
	<polygon class="st0" points="181,216.3 186.5,216.3 186.5,214.9 181,214.9 181,211.5 187.2,211.5 187.2,210.1 179.4,210.1 
		179.4,221.2 187.4,221.2 187.4,219.8 181,219.8 	"/>
	<path class="st0" d="M197.9,215.7c-0.2-0.1-0.3-0.1-0.5-0.2l0,0c0.5-0.2,0.8-0.5,1.1-0.9c0.3-0.4,0.4-0.9,0.4-1.5
		c0-0.9-0.3-1.6-1-2.1s-1.7-0.8-2.9-0.8h-5v11h5.3c1.4,0,2.5-0.3,3.2-0.8s1.1-1.3,1.1-2.2c0-0.6-0.1-1.2-0.4-1.6
		C198.8,216.2,198.4,215.9,197.9,215.7z M194.8,211.4c0.8,0,1.4,0.1,1.9,0.4c0.4,0.3,0.7,0.7,0.7,1.3s-0.2,1-0.7,1.3
		c-0.4,0.3-1.1,0.4-1.9,0.4h-3.2v-3.5h3.2V211.4z M197.2,219.5c-0.5,0.3-1.1,0.4-2,0.4h-3.6v-3.7h3.6c0.9,0,1.5,0.1,2,0.4
		c0.5,0.3,0.7,0.8,0.7,1.4C197.9,218.7,197.7,219.2,197.2,219.5z"/>
	<polygon class="st0" points="203.5,210.1 201.9,210.1 201.9,221.2 209.5,221.2 209.5,219.8 203.5,219.8 	"/>
	<path class="st0" d="M220.3,211.6c-0.5-0.5-1.2-0.9-1.9-1.2c-0.7-0.3-1.5-0.4-2.3-0.4c-0.9,0-1.6,0.1-2.4,0.4
		c-0.7,0.3-1.3,0.7-1.9,1.2c-0.5,0.5-0.9,1.1-1.2,1.8c-0.3,0.7-0.4,1.4-0.4,2.2s0.1,1.6,0.4,2.2c0.3,0.7,0.7,1.3,1.2,1.8
		s1.1,0.9,1.9,1.2c0.7,0.3,1.5,0.4,2.3,0.4s1.6-0.1,2.3-0.4c0.7-0.3,1.3-0.7,1.9-1.2c0.5-0.5,0.9-1.1,1.2-1.8
		c0.3-0.7,0.4-1.4,0.4-2.3c0-0.8-0.1-1.6-0.4-2.3C221.2,212.7,220.8,212.1,220.3,211.6z M220,217.4c-0.2,0.5-0.5,1-0.9,1.3
		c-0.4,0.4-0.8,0.7-1.4,0.9c-0.5,0.2-1.1,0.3-1.7,0.3s-1.2-0.1-1.7-0.3s-1-0.5-1.4-0.9s-0.7-0.8-0.9-1.3c-0.2-0.5-0.3-1.1-0.3-1.7
		c0-0.6,0.1-1.2,0.3-1.7c0.2-0.5,0.5-1,0.9-1.3c0.4-0.4,0.8-0.7,1.4-0.9c0.5-0.2,1.1-0.3,1.7-0.3s1.2,0.1,1.7,0.3s1,0.5,1.4,0.9
		s0.7,0.8,0.9,1.3c0.2,0.5,0.3,1.1,0.3,1.7C220.4,216.3,220.2,216.8,220,217.4z"/>
	<polygon class="st0" points="230.2,216.3 235.7,216.3 235.7,214.9 230.2,214.9 230.2,211.5 236.4,211.5 236.4,210.1 228.6,210.1 
		228.6,221.2 236.6,221.2 236.6,219.8 230.2,219.8 	"/>
	<polygon class="st0" points="247.1,218.4 240.5,210.1 239.2,210.1 239.2,221.2 240.7,221.2 240.7,213 247.4,221.2 248.7,221.2 
		248.7,210.1 247.1,210.1 	"/>
	<polygon class="st0" points="254.6,211.5 258.4,211.5 258.4,221.2 260,221.2 260,211.5 263.8,211.5 263.8,210.1 254.6,210.1 	"/>
	<polygon class="st0" points="267.1,216.3 272.6,216.3 272.6,214.9 267.1,214.9 267.1,211.5 273.3,211.5 273.3,210.1 265.5,210.1 
		265.5,221.2 273.5,221.2 273.5,219.8 267.1,219.8 	"/>
	<path class="st0" d="M282.8,217.4c0.7-0.3,1.2-0.7,1.6-1.3s0.6-1.3,0.6-2.1c0-1.2-0.4-2.2-1.2-2.8c-0.8-0.7-1.9-1-3.4-1H276v11h1.6
		v-3.4h2.7c0.2,0,0.5,0,0.7,0l2.4,3.4h1.7l-2.6-3.7C282.6,217.5,282.7,217.4,282.8,217.4z M280.3,216.5h-2.7v-5h2.7
		c1,0,1.8,0.2,2.3,0.6s0.8,1,0.8,1.8s-0.3,1.4-0.8,1.8C282.1,216.3,281.3,216.5,280.3,216.5z"/>
	<path class="st0" d="M294.3,217.4c0.7-0.3,1.2-0.7,1.6-1.3s0.6-1.3,0.6-2.1c0-1.2-0.4-2.2-1.2-2.8c-0.8-0.7-1.9-1-3.4-1h-4.3v11
		h1.6v-3.4h2.7c0.2,0,0.5,0,0.7,0l2.4,3.4h1.7l-2.6-3.7C294.1,217.5,294.2,217.4,294.3,217.4z M291.8,216.5h-2.7v-5h2.7
		c1,0,1.8,0.2,2.3,0.6c0.5,0.4,0.8,1,0.8,1.8s-0.3,1.4-0.8,1.8C293.6,216.3,292.8,216.5,291.8,216.5z"/>
	<rect x="299" y="210.1" class="st0" width="1.6" height="11"/>
	<polygon class="st0" points="302.3,211.5 306.1,211.5 306.1,221.2 307.6,221.2 307.6,211.5 311.4,211.5 311.4,210.1 302.3,210.1 	
		"/>
	<path class="st0" d="M322.2,211.6c-0.5-0.5-1.2-0.9-1.9-1.2c-0.7-0.3-1.5-0.4-2.3-0.4c-0.9,0-1.6,0.1-2.4,0.4
		c-0.7,0.3-1.3,0.7-1.9,1.2c-0.5,0.5-0.9,1.1-1.2,1.8c-0.3,0.7-0.4,1.4-0.4,2.2s0.1,1.6,0.4,2.2c0.3,0.7,0.7,1.3,1.2,1.8
		s1.1,0.9,1.9,1.2c0.7,0.3,1.5,0.4,2.3,0.4s1.6-0.1,2.3-0.4c0.7-0.3,1.3-0.7,1.9-1.2c0.5-0.5,0.9-1.1,1.2-1.8
		c0.3-0.7,0.4-1.4,0.4-2.3c0-0.8-0.1-1.6-0.4-2.3C323.1,212.7,322.7,212.1,322.2,211.6z M321.9,217.4c-0.2,0.5-0.5,1-0.9,1.3
		c-0.4,0.4-0.8,0.7-1.4,0.9c-0.5,0.2-1.1,0.3-1.7,0.3s-1.2-0.1-1.7-0.3s-1-0.5-1.4-0.9s-0.7-0.8-0.9-1.3c-0.2-0.5-0.3-1.1-0.3-1.7
		c0-0.6,0.1-1.2,0.3-1.7c0.2-0.5,0.5-1,0.9-1.3c0.4-0.4,0.8-0.7,1.4-0.9c0.5-0.2,1.1-0.3,1.7-0.3s1.2,0.1,1.7,0.3s1,0.5,1.4,0.9
		s0.7,0.8,0.9,1.3c0.2,0.5,0.3,1.1,0.3,1.7C322.2,216.3,322.1,216.8,321.9,217.4z"/>
	<path class="st0" d="M333,217.4c0.7-0.3,1.2-0.7,1.6-1.3s0.6-1.3,0.6-2.1c0-1.2-0.4-2.2-1.2-2.8c-0.8-0.7-1.9-1-3.4-1h-4.3v11h1.6
		v-3.4h2.7c0.2,0,0.5,0,0.7,0l2.4,3.4h1.7l-2.6-3.7C332.8,217.5,332.9,217.4,333,217.4z M330.5,216.5h-2.7v-5h2.7
		c1,0,1.8,0.2,2.3,0.6c0.5,0.4,0.8,1,0.8,1.8s-0.3,1.4-0.8,1.8C332.3,216.3,331.5,216.5,330.5,216.5z"/>
	<rect x="337.7" y="210.1" class="st0" width="1.6" height="11"/>
	<path class="st0" d="M353,213.4c-0.3-0.7-0.7-1.3-1.2-1.8s-1.2-0.9-1.9-1.2c-0.7-0.3-1.5-0.4-2.3-0.4c-0.9,0-1.6,0.1-2.4,0.4
		c-0.7,0.3-1.3,0.7-1.9,1.2c-0.5,0.5-0.9,1.1-1.2,1.8c-0.3,0.7-0.4,1.4-0.4,2.2s0.1,1.6,0.4,2.2c0.3,0.7,0.7,1.3,1.2,1.8
		s1.1,0.9,1.9,1.2c0.7,0.3,1.5,0.4,2.3,0.4s1.6-0.1,2.3-0.4c0.7-0.3,1.3-0.7,1.9-1.2c0.5-0.5,0.9-1.1,1.2-1.8
		c0.3-0.7,0.4-1.4,0.4-2.3C353.4,214.9,353.3,214.1,353,213.4z M351.5,217.4c-0.2,0.5-0.5,1-0.9,1.3c-0.4,0.4-0.8,0.7-1.4,0.9
		c-0.5,0.2-1.1,0.3-1.7,0.3s-1.2-0.1-1.7-0.3s-1-0.5-1.4-0.9s-0.7-0.8-0.9-1.3c-0.2-0.5-0.3-1.1-0.3-1.7c0-0.6,0.1-1.2,0.3-1.7
		c0.2-0.5,0.5-1,0.9-1.3c0.4-0.4,0.8-0.7,1.4-0.9c0.5-0.2,1.1-0.3,1.7-0.3s1.2,0.1,1.7,0.3s1,0.5,1.4,0.9s0.7,0.8,0.9,1.3
		c0.2,0.5,0.3,1.1,0.3,1.7C351.9,216.3,351.8,216.8,351.5,217.4z"/>
</g>
<g>
	<path class="st0" d="M16.1,158.9h14.3v19.3c0,4.5-1.9,6.7-5.7,6.7c-1.4,0-2.8-0.4-4-1.1c-1.2-0.8-2.4-1.9-3.5-3.3l-5.2,6.3
		c1.5,1.9,3.4,3.4,5.7,4.4s4.8,1.5,7.6,1.5c4.8,0,8.4-1.2,10.9-3.7s3.7-6.2,3.7-11.3v-26.3H16.3v7.5H16.1z"/>
	<path class="st0" d="M84.5,156.7c-2-1.9-4.3-3.4-7-4.4s-5.6-1.6-8.8-1.6s-6.1,0.5-8.8,1.6c-2.7,1-5.1,2.5-7.1,4.4s-3.6,4.1-4.7,6.7
		c-1.1,2.6-1.7,5.3-1.7,8.4c0,3,0.6,5.8,1.7,8.4c1.1,2.6,2.6,4.8,4.6,6.7s4.3,3.4,7.1,4.4c2.7,1,5.7,1.6,8.9,1.6s6.1-0.5,8.8-1.6
		c2.7-1,5-2.5,7-4.4s3.5-4.1,4.7-6.7c1.1-2.6,1.7-5.4,1.7-8.4c0-3.1-0.6-5.8-1.7-8.4C88,160.8,86.5,158.5,84.5,156.7z M80.4,177
		c-0.6,1.6-1.5,3-2.7,4.1c-1.2,1.2-2.5,2-4,2.7c-1.5,0.6-3.2,0.9-5,0.9s-3.5-0.3-5-0.9c-1.5-0.6-2.9-1.5-4-2.7s-2-2.5-2.7-4.1
		c-0.6-1.6-1-3.4-1-5.2c0-1.9,0.3-3.7,1-5.3c0.6-1.6,1.5-3,2.7-4.1c1.2-1.2,2.5-2,4-2.7c1.5-0.6,3.2-0.9,5-0.9s3.5,0.3,5,0.9
		c1.5,0.6,2.9,1.5,4,2.7s2,2.5,2.7,4.1c0.6,1.6,1,3.3,1,5.3C81.3,173.6,81,175.4,80.4,177z"/>
	<path class="st0" d="M124.9,178.9c2.6-1.2,4.7-2.8,6.1-5s2.1-4.8,2.1-7.8c0-4.6-1.6-8.2-4.7-10.8s-7.5-3.9-13.2-3.9H97.9V192h9.4
		v-11.3h8.2c0.1,0,0.3,0,0.4,0l7.8,11.3h10.1L124.9,178.9C124.8,178.9,124.9,178.9,124.9,178.9z M121.5,160.9c1.4,1.2,2.1,3,2.1,5.2
		s-0.7,3.9-2.1,5.2s-3.6,1.9-6.5,1.9h-7.7V159h7.7C117.9,159,120,159.6,121.5,160.9z"/>
	<polygon class="st0" points="168.5,176 148.3,151.4 140.5,151.4 140.5,192 149.8,192 149.8,167.3 170.1,192 177.8,192 177.8,151.4 
		168.5,151.4 	"/>
	<path class="st0" d="M200.2,151.4L182.1,192h9.6l3.6-8.7h18.8l3.6,8.7h9.9l-18.2-40.6H200.2z M198.3,176.1l6.5-15.5l6.4,15.5H198.3
		z"/>
	<path class="st0" d="M261.9,153.9c-3.4-1.7-7.3-2.5-11.7-2.5h-18.4V192h18.4c4.4,0,8.3-0.8,11.7-2.5c3.4-1.7,6-4,7.9-7.1
		c1.9-3,2.8-6.6,2.8-10.7c0-4.1-0.9-7.7-2.8-10.7C267.9,157.9,265.3,155.6,261.9,153.9z M261.5,178.3c-1.1,1.9-2.6,3.4-4.6,4.4
		s-4.3,1.5-7,1.5h-8.6V159h8.6c2.7,0,5.1,0.5,7,1.5c2,1,3.5,2.5,4.6,4.3c1.1,1.9,1.7,4.1,1.7,6.7
		C263.2,174.2,262.6,176.4,261.5,178.3z"/>
	<path class="st0" d="M291.9,151.4L273.8,192h9.6l3.6-8.7h18.8l3.6,8.7h9.9l-18.2-40.6H291.9z M290,176.1l6.5-15.5l6.4,15.5H290z"/>
	<path class="st0" d="M352.9,174.8c-0.9-1.4-2-2.5-3.4-3.4c-1.4-0.8-2.9-1.5-4.6-2s-3.4-0.9-5-1.3c-1.7-0.4-3.2-0.8-4.6-1.2
		s-2.5-0.9-3.4-1.5s-1.3-1.5-1.3-2.5c0-0.9,0.3-1.7,0.8-2.3c0.5-0.7,1.3-1.2,2.5-1.7c1.2-0.4,2.6-0.6,4.5-0.6c1.8,0,3.7,0.3,5.6,0.8
		s3.8,1.3,5.7,2.4l2.9-7.1c-1.9-1.2-4.1-2.1-6.6-2.7c-2.5-0.6-5-0.9-7.5-0.9c-3.8,0-7,0.6-9.5,1.7c-2.5,1.1-4.4,2.7-5.7,4.6
		c-1.3,1.9-1.9,4-1.9,6.4c0,2.2,0.4,3.9,1.3,5.3c0.9,1.4,2,2.5,3.4,3.4s2.9,1.5,4.6,2.1c1.7,0.5,3.4,1,5,1.4
		c1.7,0.4,3.2,0.8,4.6,1.2s2.5,0.9,3.4,1.6c0.8,0.6,1.3,1.5,1.3,2.6c0,0.9-0.3,1.6-0.8,2.3s-1.4,1.2-2.5,1.5
		c-1.1,0.4-2.6,0.6-4.5,0.6c-2.4,0-4.8-0.4-7.2-1.2c-2.4-0.8-4.4-1.8-6.2-3l-3.2,7.1c1.8,1.4,4.2,2.5,7.2,3.4s6.1,1.3,9.3,1.3
		c3.9,0,7.1-0.6,9.6-1.7c2.5-1.2,4.4-2.7,5.7-4.6c1.3-1.9,1.9-4,1.9-6.3C354.2,178,353.7,176.2,352.9,174.8z"/>
</g>
</svg>
